<?xml version="1.0" ?><svg id="Layer_1" style="enable-background:new 0 0 512 512;" version="1.1" viewBox="0 0 512 512" xml:space="preserve" xmlns="http://www.w3.org/2000/svg" xmlns:xlink="http://www.w3.org/1999/xlink"><style type="text/css">
	.st0{fill:#FFFFFF;}
	.st1{fill:#F0953D;}
	.st2{fill:#3D8A41;}
	.st3{fill:#2A2874;}
</style><g><rect class="st0" height="298.7" width="512" y="106.7"/><rect class="st1" height="99.6" width="512" y="106.7"/><rect class="st2" height="99.6" width="512" y="305.8"/><path class="st3" d="M256,211.2c-24.7,0-44.8,20.1-44.8,44.8c0,24.7,20.1,44.8,44.8,44.8s44.8-20.1,44.8-44.8   C300.8,231.3,280.7,211.2,256,211.2 M256,215.6l-1.1,22.5l1.2,12.8l1.2-12.8l-1.1-22.5c1.2,0,2.3,0.1,3.4,0.2c0,0.1,0,0.1,0,0.2   c0,1,0.8,1.9,1.9,1.9c0.9,0,1.7-0.7,1.8-1.6c1.1,0.2,2.2,0.4,3.3,0.7l-6.9,21.4l-2.2,12.7l4.5-12.1l4.7-22c1.1,0.3,2.2,0.6,3.2,1   c-0.1,0.2-0.1,0.4-0.1,0.7c0,1,0.8,1.8,1.9,1.8c0.8,0,1.4-0.5,1.7-1.1c1,0.5,2,1,3,1.6l-12.2,18.9l-5.4,11.7l7.5-10.5l10.3-20.1   c1,0.6,1.9,1.2,2.8,1.8c-0.2,0.3-0.4,0.7-0.4,1.1c0,1,0.8,1.9,1.9,1.9c0.6,0,1.1-0.3,1.5-0.7c0.9,0.7,1.7,1.5,2.5,2.3l-16.7,15.1   l-8.2,9.9l9.9-8.2l15.1-16.7c0.8,0.8,1.6,1.6,2.3,2.5c-0.4,0.3-0.7,0.9-0.7,1.4c0,1,0.8,1.9,1.9,1.9c0.4,0,0.8-0.1,1.1-0.4   c0.6,0.9,1.3,1.9,1.8,2.9L270.9,246l-10.5,7.5l11.7-5.4l18.9-12.3c0.6,1,1.1,2.1,1.6,3.2c-0.7,0.3-1.1,0.9-1.1,1.7   c0,1,0.8,1.9,1.9,1.9c0.3,0,0.5,0,0.7-0.1c0.4,1,0.7,2,1,3.1l-22,4.7l-12.1,4.5l12.7-2.2l21.4-6.9c0.3,1.1,0.5,2.2,0.7,3.3   c-0.9,0.1-1.6,0.9-1.6,1.8c0,1,0.8,1.9,1.9,1.9c0.1,0,0.1,0,0.2,0c0.1,1.1,0.2,2.2,0.2,3.4l-22.5-1.1l-12.9,1.2l12.8,1.2l22.5-1.1   c0,1.1-0.1,2.3-0.2,3.4c-0.1,0-0.1,0-0.2,0c-1,0-1.9,0.8-1.9,1.9c0,0.9,0.7,1.7,1.6,1.8c-0.2,1.1-0.4,2.2-0.7,3.3l-7.6-2.5   l-13.8-4.5l-12.7-2.2l0,0l0,0l12.1,4.5l22,4.7c-0.3,1.1-0.6,2.2-1,3.2c-0.1,0-0.2-0.1-0.3-0.1h0c-0.1,0-0.2,0-0.4,0   c-1,0-1.9,0.8-1.9,1.9c0,0.3,0,0.5,0.1,0.7c0,0,0,0,0,0c0.1,0.3,0.3,0.5,0.5,0.7h0c0,0,0.1,0.1,0.1,0.1h0c0,0,0.1,0.1,0.1,0.1   c0,0,0,0,0,0c0,0,0.1,0.1,0.1,0.1c-0.5,1-1,2-1.6,3l-18.9-12.2h0l-11.7-5.4l0,0l6.1,4.3l4.4,3.1h0l20,10.2c-0.6,1-1.2,2-1.9,2.9   c-0.3-0.2-0.7-0.3-1.1-0.3c-1,0-1.9,0.8-1.9,1.9c0,0.6,0.3,1.1,0.7,1.4c-0.7,0.9-1.5,1.7-2.2,2.5l-15.1-16.7l-9.9-8.2l8.2,9.9   l16.7,15.1c-0.8,0.8-1.6,1.5-2.4,2.2c-0.3-0.3-0.7-0.4-1.2-0.4c-1,0-1.9,0.8-1.9,1.9c0,0.3,0.1,0.5,0.2,0.8c-1,0.7-2,1.3-3,1.9   l-10.3-20l-7.5-10.5h0l5.4,11.7l12.2,18.9c-1,0.6-2,1.1-3,1.5c-0.3-0.6-0.9-1.1-1.7-1.1c-1,0-1.9,0.8-1.9,1.9c0,0.2,0,0.5,0.1,0.7   c-1.1,0.4-2.2,0.7-3.3,1l-4.7-22l-4.5-12.1l0,0l2.2,12.7l6.9,21.4c-1.1,0.3-2.2,0.5-3.3,0.7c-0.1-0.9-0.9-1.6-1.8-1.6   c-1,0-1.9,0.8-1.9,1.9c0,0.1,0,0.1,0,0.2c-1.1,0.1-2.2,0.2-3.4,0.2l1.2-22.5l-1.2-12.8l-1.2,12.8l1.2,22.5c-1.2,0-2.3-0.1-3.5-0.2   c0-0.1,0-0.1,0-0.2c0-1-0.8-1.9-1.9-1.9c-0.9,0-1.7,0.7-1.8,1.6c-1.1-0.2-2.2-0.4-3.2-0.7l6.9-21.4l2.2-12.7l-4.5,12.1l-4.7,22   c-1.1-0.3-2.2-0.6-3.2-1c0.1-0.2,0.1-0.4,0.1-0.7c0-1-0.8-1.9-1.8-1.9c-0.8,0-1.4,0.5-1.7,1.1c-1-0.5-2-1-3-1.6l12.2-18.9l5.4-11.7   l-7.5,10.5L235.7,291c-1-0.6-1.9-1.2-2.9-1.8c0.2-0.3,0.4-0.7,0.4-1.1c0-1-0.8-1.9-1.9-1.9c-0.6,0-1.1,0.3-1.4,0.7   c-0.9-0.7-1.7-1.5-2.5-2.2l16.7-15.1l8.2-9.9v0l-9.9,8.2l-15.1,16.7c-0.8-0.8-1.6-1.6-2.3-2.5c0.4-0.3,0.7-0.9,0.7-1.4   c0-1-0.8-1.9-1.8-1.9c-0.4,0-0.8,0.1-1.1,0.4c-0.6-0.9-1.3-1.9-1.8-2.9l20.1-10.3l10.5-7.5l-11.7,5.4L221,276.2   c-0.6-1-1.1-1.9-1.5-2.9c0.7-0.3,1.2-0.9,1.2-1.7c0-1-0.8-1.9-1.9-1.9c-0.3,0-0.6,0.1-0.8,0.2c-0.4-1.1-0.7-2.2-1-3.3l22-4.7   l12.1-4.5l-12.7,2.2l-21.4,6.9c-0.3-1.1-0.5-2.2-0.7-3.3c0.9-0.1,1.6-0.9,1.6-1.8c0-1-0.8-1.9-1.9-1.9c-0.1,0-0.1,0-0.2,0   c-0.1-1.1-0.1-2.2-0.2-3.4l22.5,1.1l12.8-1.2l-12.8-1.2l-22.5,1.2c0-1.1,0.1-2.3,0.2-3.4c0.1,0,0.2,0,0.3,0c1,0,1.9-0.8,1.9-1.9   c0-1-0.7-1.8-1.7-1.9c0.2-1.1,0.4-2.2,0.7-3.3l21.4,6.9l12.7,2.2l-12.1-4.5l-22-4.7c0.3-1.1,0.6-2.2,1-3.2c0.2,0.1,0.4,0.1,0.7,0.1   c1,0,1.9-0.8,1.9-1.8c0-0.8-0.5-1.4-1.1-1.7c0.5-1,1-2,1.6-3l18.9,12.2l11.7,5.4l-10.5-7.5L221,235.7c0.6-1,1.2-1.9,1.8-2.9   c0.3,0.2,0.7,0.4,1.1,0.4c1,0,1.9-0.8,1.9-1.8c0-0.6-0.3-1.1-0.7-1.5c0.7-0.9,1.5-1.7,2.3-2.5l15.1,16.7l9.9,8.2l-8.2-9.9   l-16.7-15.1c0.8-0.8,1.6-1.6,2.5-2.3c0.3,0.4,0.9,0.7,1.4,0.7c1,0,1.8-0.8,1.8-1.8c0-0.4-0.1-0.8-0.3-1.1c0.9-0.6,1.9-1.3,2.8-1.8   l10.3,20.1l7.5,10.5l-5.4-11.7l-12.2-18.9c1-0.6,1.9-1.1,3-1.5c0.3,0.7,0.9,1.2,1.7,1.2c1,0,1.9-0.8,1.9-1.8c0-0.3-0.1-0.5-0.2-0.8   c1.1-0.4,2.2-0.7,3.3-1l4.7,22l4.5,12.1l-2.2-12.7l-6.9-21.4c1.1-0.3,2.2-0.5,3.3-0.7c0.1,0.9,0.9,1.6,1.8,1.6c1,0,1.9-0.8,1.9-1.9   c0-0.1,0-0.1,0-0.2C253.7,215.6,254.8,215.6,256,215.6"/><path class="st0" d="M256,249.3c3.7,0,6.7,3,6.7,6.7c0,3.7-3,6.7-6.7,6.7c-3.7,0-6.7-3-6.7-6.7C249.3,252.3,252.3,249.3,256,249.3"/><path class="st3" d="M256,250.8c2.9,0,5.2,2.3,5.2,5.2c0,2.9-2.3,5.2-5.2,5.2c-2.9,0-5.2-2.3-5.2-5.2   C250.8,253.2,253.2,250.8,256,250.8"/></g></svg>